<mxfile host="app.diagrams.net" modified="2023-09-23T17:55:25.724Z" agent="Mozilla/5.0 (Windows NT 10.0; Win64; x64) AppleWebKit/537.36 (KHTML, like Gecko) Chrome/116.0.0.0 Safari/537.36" etag="e-x1RiQqrJyKoYIX-ao1" version="21.8.1" type="device">
  <diagram name="Página-1" id="p5_fycaxp5FFqTbHWcn3">
    <mxGraphModel dx="2261" dy="1959" grid="1" gridSize="10" guides="1" tooltips="1" connect="1" arrows="1" fold="1" page="1" pageScale="1" pageWidth="827" pageHeight="1169" math="0" shadow="0">
      <root>
        <mxCell id="0" />
        <mxCell id="1" parent="0" />
        <mxCell id="gorFqiDRSXCNZbVEXhV4-33" value="" style="rounded=0;whiteSpace=wrap;html=1;" parent="1" vertex="1">
          <mxGeometry x="-250" y="590" width="340" height="350" as="geometry" />
        </mxCell>
        <mxCell id="3xU1QoV2EhT_rD0yMtTH-9" value="" style="rounded=0;whiteSpace=wrap;html=1;" parent="1" vertex="1">
          <mxGeometry x="410" y="-110" width="640" height="80" as="geometry" />
        </mxCell>
        <mxCell id="x-IFsA0KZFPQdiXZyoPM-10" value="RNE:&lt;br&gt;Para &quot;Usuario&quot;, &quot;Nombre&quot; no se puede repetir en el sistema.&lt;br&gt;Para &quot;Usuario&quot;, &quot;Email&quot; no se puede repetir en el sistema.&lt;br&gt;Para &quot;Video&quot;,&quot;DuracionMinutos&quot;, el tiempo debe estar en minutos.&lt;br&gt;Dominio, Video.NroMeGusta, son enteros mayores o iguales a 0.&lt;br&gt;Dominio, Video.NroVistas, son enteros mayores o iguales a 0." style="text;html=1;strokeColor=default;fillColor=none;align=left;verticalAlign=top;whiteSpace=wrap;rounded=0;" parent="1" vertex="1">
          <mxGeometry x="390" y="570" width="380" height="230" as="geometry" />
        </mxCell>
        <mxCell id="x-IFsA0KZFPQdiXZyoPM-26" value="Sube" style="shape=rhombus;perimeter=rhombusPerimeter;whiteSpace=wrap;html=1;align=center;" parent="1" vertex="1">
          <mxGeometry x="190" y="-100" width="120" height="60" as="geometry" />
        </mxCell>
        <mxCell id="x-IFsA0KZFPQdiXZyoPM-37" value="(1,1)" style="text;html=1;strokeColor=none;fillColor=none;align=center;verticalAlign=middle;whiteSpace=wrap;rounded=0;" parent="1" vertex="1">
          <mxGeometry x="60" y="10" width="60" height="30" as="geometry" />
        </mxCell>
        <mxCell id="pTBvgsi7Kd9pau4Qi3qM-1" value="(0,N)" style="text;html=1;strokeColor=none;fillColor=none;align=center;verticalAlign=middle;whiteSpace=wrap;rounded=0;" parent="1" vertex="1">
          <mxGeometry x="344" y="-70" width="60" height="30" as="geometry" />
        </mxCell>
        <mxCell id="pTBvgsi7Kd9pau4Qi3qM-6" value="Tiene" style="shape=rhombus;perimeter=rhombusPerimeter;whiteSpace=wrap;html=1;align=center;" parent="1" vertex="1">
          <mxGeometry x="470" y="240" width="120" height="60" as="geometry" />
        </mxCell>
        <mxCell id="pTBvgsi7Kd9pau4Qi3qM-18" value="(1,1)" style="text;html=1;strokeColor=none;fillColor=none;align=center;verticalAlign=middle;whiteSpace=wrap;rounded=0;" parent="1" vertex="1">
          <mxGeometry x="530" y="-30" width="60" height="30" as="geometry" />
        </mxCell>
        <mxCell id="pTBvgsi7Kd9pau4Qi3qM-19" value="(0,N)" style="text;html=1;strokeColor=none;fillColor=none;align=center;verticalAlign=middle;whiteSpace=wrap;rounded=0;" parent="1" vertex="1">
          <mxGeometry x="530" y="340" width="60" height="30" as="geometry" />
        </mxCell>
        <mxCell id="pTBvgsi7Kd9pau4Qi3qM-33" value="Guarda" style="shape=rhombus;perimeter=rhombusPerimeter;whiteSpace=wrap;html=1;align=center;" parent="1" vertex="1">
          <mxGeometry x="120" y="425" width="120" height="60" as="geometry" />
        </mxCell>
        <mxCell id="pTBvgsi7Kd9pau4Qi3qM-41" value="(1,1)" style="text;html=1;strokeColor=none;fillColor=none;align=center;verticalAlign=middle;whiteSpace=wrap;rounded=0;" parent="1" vertex="1">
          <mxGeometry x="30" y="200" width="60" height="30" as="geometry" />
        </mxCell>
        <mxCell id="pTBvgsi7Kd9pau4Qi3qM-43" value="(0,N)" style="text;html=1;strokeColor=none;fillColor=none;align=center;verticalAlign=middle;whiteSpace=wrap;rounded=0;" parent="1" vertex="1">
          <mxGeometry x="500" y="455" width="60" height="30" as="geometry" />
        </mxCell>
        <mxCell id="pTBvgsi7Kd9pau4Qi3qM-51" value="Sigue/Seguido" style="shape=rhombus;perimeter=rhombusPerimeter;whiteSpace=wrap;html=1;align=center;" parent="1" vertex="1">
          <mxGeometry x="-80" y="-10" width="120" height="60" as="geometry" />
        </mxCell>
        <mxCell id="6Hfsp-HchkriN_jyHXR6-1" value="Comentario" style="whiteSpace=wrap;html=1;align=center;" parent="1" vertex="1">
          <mxGeometry x="480" y="390" width="100" height="40" as="geometry" />
        </mxCell>
        <mxCell id="6Hfsp-HchkriN_jyHXR6-8" value="" style="endArrow=none;html=1;rounded=0;exitX=1;exitY=0.5;exitDx=0;exitDy=0;" parent="1" source="6Hfsp-HchkriN_jyHXR6-1" target="6Hfsp-HchkriN_jyHXR6-9" edge="1">
          <mxGeometry relative="1" as="geometry">
            <mxPoint x="1190" y="160" as="sourcePoint" />
            <mxPoint x="1310" y="290" as="targetPoint" />
          </mxGeometry>
        </mxCell>
        <mxCell id="6Hfsp-HchkriN_jyHXR6-9" value="Contenido" style="ellipse;whiteSpace=wrap;html=1;align=center;" parent="1" vertex="1">
          <mxGeometry x="620" y="430" width="100" height="40" as="geometry" />
        </mxCell>
        <mxCell id="6Hfsp-HchkriN_jyHXR6-10" value="" style="endArrow=none;html=1;rounded=0;exitX=1;exitY=0.5;exitDx=0;exitDy=0;entryX=0;entryY=0.5;entryDx=0;entryDy=0;" parent="1" source="6Hfsp-HchkriN_jyHXR6-1" target="6Hfsp-HchkriN_jyHXR6-12" edge="1">
          <mxGeometry relative="1" as="geometry">
            <mxPoint x="1150" y="290" as="sourcePoint" />
            <mxPoint x="1294.986120106274" y="87.31730146488735" as="targetPoint" />
          </mxGeometry>
        </mxCell>
        <mxCell id="6Hfsp-HchkriN_jyHXR6-12" value="IdComentario" style="ellipse;whiteSpace=wrap;html=1;align=center;fontStyle=4;" parent="1" vertex="1">
          <mxGeometry x="620" y="350" width="100" height="40" as="geometry" />
        </mxCell>
        <mxCell id="6Hfsp-HchkriN_jyHXR6-15" value="" style="endArrow=none;html=1;rounded=0;exitX=0.5;exitY=1;exitDx=0;exitDy=0;entryX=0.5;entryY=0;entryDx=0;entryDy=0;" parent="1" source="pTBvgsi7Kd9pau4Qi3qM-6" target="6Hfsp-HchkriN_jyHXR6-1" edge="1">
          <mxGeometry relative="1" as="geometry">
            <mxPoint x="910" y="290" as="sourcePoint" />
            <mxPoint x="480" y="320" as="targetPoint" />
          </mxGeometry>
        </mxCell>
        <mxCell id="6Hfsp-HchkriN_jyHXR6-16" value="Usuario" style="whiteSpace=wrap;html=1;align=center;" parent="1" vertex="1">
          <mxGeometry x="-70" y="120" width="100" height="40" as="geometry" />
        </mxCell>
        <mxCell id="6Hfsp-HchkriN_jyHXR6-20" value="" style="endArrow=none;html=1;rounded=0;exitX=0;exitY=0.5;exitDx=0;exitDy=0;entryX=1;entryY=0.5;entryDx=0;entryDy=0;" parent="1" source="6Hfsp-HchkriN_jyHXR6-16" target="6Hfsp-HchkriN_jyHXR6-21" edge="1">
          <mxGeometry relative="1" as="geometry">
            <mxPoint x="130" y="360" as="sourcePoint" />
            <mxPoint x="290" y="360" as="targetPoint" />
          </mxGeometry>
        </mxCell>
        <mxCell id="6Hfsp-HchkriN_jyHXR6-21" value="FotoDePerfil" style="ellipse;whiteSpace=wrap;html=1;align=center;" parent="1" vertex="1">
          <mxGeometry x="-280" y="190" width="100" height="40" as="geometry" />
        </mxCell>
        <mxCell id="6Hfsp-HchkriN_jyHXR6-22" value="" style="endArrow=none;html=1;rounded=0;exitX=0;exitY=0.5;exitDx=0;exitDy=0;entryX=1;entryY=0.5;entryDx=0;entryDy=0;" parent="1" source="6Hfsp-HchkriN_jyHXR6-16" target="6Hfsp-HchkriN_jyHXR6-23" edge="1">
          <mxGeometry relative="1" as="geometry">
            <mxPoint x="130" y="360" as="sourcePoint" />
            <mxPoint x="290" y="360" as="targetPoint" />
          </mxGeometry>
        </mxCell>
        <mxCell id="6Hfsp-HchkriN_jyHXR6-23" value="FechaDeRegistro" style="ellipse;whiteSpace=wrap;html=1;align=center;" parent="1" vertex="1">
          <mxGeometry x="-290" y="150" width="120" height="40" as="geometry" />
        </mxCell>
        <mxCell id="6Hfsp-HchkriN_jyHXR6-24" value="" style="endArrow=none;html=1;rounded=0;exitX=0;exitY=0.5;exitDx=0;exitDy=0;entryX=1;entryY=0.5;entryDx=0;entryDy=0;" parent="1" source="6Hfsp-HchkriN_jyHXR6-16" target="6Hfsp-HchkriN_jyHXR6-25" edge="1">
          <mxGeometry relative="1" as="geometry">
            <mxPoint x="130" y="360" as="sourcePoint" />
            <mxPoint x="290" y="360" as="targetPoint" />
          </mxGeometry>
        </mxCell>
        <mxCell id="6Hfsp-HchkriN_jyHXR6-25" value="Contraseña" style="ellipse;whiteSpace=wrap;html=1;align=center;" parent="1" vertex="1">
          <mxGeometry x="-280" y="110" width="100" height="40" as="geometry" />
        </mxCell>
        <mxCell id="6Hfsp-HchkriN_jyHXR6-28" value="" style="endArrow=none;html=1;rounded=0;exitX=0;exitY=0.5;exitDx=0;exitDy=0;entryX=1;entryY=0.5;entryDx=0;entryDy=0;" parent="1" source="6Hfsp-HchkriN_jyHXR6-16" target="6Hfsp-HchkriN_jyHXR6-29" edge="1">
          <mxGeometry relative="1" as="geometry">
            <mxPoint x="130" y="360" as="sourcePoint" />
            <mxPoint x="290" y="360" as="targetPoint" />
          </mxGeometry>
        </mxCell>
        <mxCell id="6Hfsp-HchkriN_jyHXR6-29" value="Email" style="ellipse;whiteSpace=wrap;html=1;align=center;" parent="1" vertex="1">
          <mxGeometry x="-280" y="70" width="100" height="40" as="geometry" />
        </mxCell>
        <mxCell id="6Hfsp-HchkriN_jyHXR6-30" value="" style="endArrow=none;html=1;rounded=0;exitX=0;exitY=0.5;exitDx=0;exitDy=0;" parent="1" source="6Hfsp-HchkriN_jyHXR6-16" target="6Hfsp-HchkriN_jyHXR6-31" edge="1">
          <mxGeometry relative="1" as="geometry">
            <mxPoint x="-70" y="140" as="sourcePoint" />
            <mxPoint x="290" y="360" as="targetPoint" />
          </mxGeometry>
        </mxCell>
        <mxCell id="6Hfsp-HchkriN_jyHXR6-31" value="NombreDeUsuario" style="ellipse;whiteSpace=wrap;html=1;align=center;" parent="1" vertex="1">
          <mxGeometry x="-290" y="30" width="120" height="40" as="geometry" />
        </mxCell>
        <mxCell id="6Hfsp-HchkriN_jyHXR6-32" value="" style="endArrow=none;html=1;rounded=0;exitX=0;exitY=0.5;exitDx=0;exitDy=0;entryX=1;entryY=0.5;entryDx=0;entryDy=0;" parent="1" source="6Hfsp-HchkriN_jyHXR6-16" target="6Hfsp-HchkriN_jyHXR6-33" edge="1">
          <mxGeometry relative="1" as="geometry">
            <mxPoint x="130" y="360" as="sourcePoint" />
            <mxPoint x="290" y="360" as="targetPoint" />
          </mxGeometry>
        </mxCell>
        <mxCell id="6Hfsp-HchkriN_jyHXR6-33" value="IdUsuario" style="ellipse;whiteSpace=wrap;html=1;align=center;fontStyle=4;" parent="1" vertex="1">
          <mxGeometry x="-280" y="-10" width="100" height="40" as="geometry" />
        </mxCell>
        <mxCell id="6Hfsp-HchkriN_jyHXR6-36" value="Video" style="whiteSpace=wrap;html=1;align=center;" parent="1" vertex="1">
          <mxGeometry x="440" y="-90" width="100" height="40" as="geometry" />
        </mxCell>
        <mxCell id="6Hfsp-HchkriN_jyHXR6-37" value="" style="endArrow=none;html=1;rounded=0;exitX=0.5;exitY=0;exitDx=0;exitDy=0;" parent="1" source="6Hfsp-HchkriN_jyHXR6-36" target="6Hfsp-HchkriN_jyHXR6-38" edge="1">
          <mxGeometry relative="1" as="geometry">
            <mxPoint x="590" y="30" as="sourcePoint" />
            <mxPoint x="750" y="30" as="targetPoint" />
          </mxGeometry>
        </mxCell>
        <mxCell id="6Hfsp-HchkriN_jyHXR6-38" value="IdVideo" style="ellipse;whiteSpace=wrap;html=1;align=center;fontStyle=4;" parent="1" vertex="1">
          <mxGeometry x="324" y="-220" width="100" height="40" as="geometry" />
        </mxCell>
        <mxCell id="6Hfsp-HchkriN_jyHXR6-41" value="" style="endArrow=none;html=1;rounded=0;exitX=0.5;exitY=0;exitDx=0;exitDy=0;" parent="1" source="6Hfsp-HchkriN_jyHXR6-36" target="6Hfsp-HchkriN_jyHXR6-42" edge="1">
          <mxGeometry relative="1" as="geometry">
            <mxPoint x="590" y="30" as="sourcePoint" />
            <mxPoint x="750" y="30" as="targetPoint" />
          </mxGeometry>
        </mxCell>
        <mxCell id="6Hfsp-HchkriN_jyHXR6-42" value="NroMeGusta" style="ellipse;whiteSpace=wrap;html=1;align=center;" parent="1" vertex="1">
          <mxGeometry x="360" y="-260" width="100" height="40" as="geometry" />
        </mxCell>
        <mxCell id="6Hfsp-HchkriN_jyHXR6-43" value="" style="endArrow=none;html=1;rounded=0;exitX=0.5;exitY=0;exitDx=0;exitDy=0;" parent="1" source="6Hfsp-HchkriN_jyHXR6-36" target="6Hfsp-HchkriN_jyHXR6-44" edge="1">
          <mxGeometry relative="1" as="geometry">
            <mxPoint x="590" y="30" as="sourcePoint" />
            <mxPoint x="750" y="30" as="targetPoint" />
          </mxGeometry>
        </mxCell>
        <mxCell id="6Hfsp-HchkriN_jyHXR6-44" value="NroVistas" style="ellipse;whiteSpace=wrap;html=1;align=center;" parent="1" vertex="1">
          <mxGeometry x="570" y="-220" width="100" height="40" as="geometry" />
        </mxCell>
        <mxCell id="6Hfsp-HchkriN_jyHXR6-47" value="" style="endArrow=none;html=1;rounded=0;exitX=0.5;exitY=0;exitDx=0;exitDy=0;" parent="1" source="6Hfsp-HchkriN_jyHXR6-36" target="6Hfsp-HchkriN_jyHXR6-48" edge="1">
          <mxGeometry relative="1" as="geometry">
            <mxPoint x="590" y="30" as="sourcePoint" />
            <mxPoint x="750" y="30" as="targetPoint" />
          </mxGeometry>
        </mxCell>
        <mxCell id="6Hfsp-HchkriN_jyHXR6-48" value="DuracionMinutos" style="ellipse;whiteSpace=wrap;html=1;align=center;" parent="1" vertex="1">
          <mxGeometry x="290" y="-180" width="100" height="40" as="geometry" />
        </mxCell>
        <mxCell id="6Hfsp-HchkriN_jyHXR6-49" value="" style="endArrow=none;html=1;rounded=0;exitX=0.5;exitY=0;exitDx=0;exitDy=0;" parent="1" source="6Hfsp-HchkriN_jyHXR6-36" target="6Hfsp-HchkriN_jyHXR6-50" edge="1">
          <mxGeometry relative="1" as="geometry">
            <mxPoint x="590" y="30" as="sourcePoint" />
            <mxPoint x="750" y="30" as="targetPoint" />
          </mxGeometry>
        </mxCell>
        <mxCell id="6Hfsp-HchkriN_jyHXR6-50" value="FechaDePublicacion" style="ellipse;whiteSpace=wrap;html=1;align=center;" parent="1" vertex="1">
          <mxGeometry x="580" y="-180" width="120" height="40" as="geometry" />
        </mxCell>
        <mxCell id="6Hfsp-HchkriN_jyHXR6-51" value="" style="endArrow=none;html=1;rounded=0;exitX=0.5;exitY=0;exitDx=0;exitDy=0;" parent="1" source="6Hfsp-HchkriN_jyHXR6-36" target="6Hfsp-HchkriN_jyHXR6-52" edge="1">
          <mxGeometry relative="1" as="geometry">
            <mxPoint x="590" y="30" as="sourcePoint" />
            <mxPoint x="750" y="30" as="targetPoint" />
          </mxGeometry>
        </mxCell>
        <mxCell id="6Hfsp-HchkriN_jyHXR6-52" value="Descripcion" style="ellipse;whiteSpace=wrap;html=1;align=center;" parent="1" vertex="1">
          <mxGeometry x="540" y="-260" width="100" height="40" as="geometry" />
        </mxCell>
        <mxCell id="6Hfsp-HchkriN_jyHXR6-53" value="" style="endArrow=none;html=1;rounded=0;exitX=0.511;exitY=0.057;exitDx=0;exitDy=0;exitPerimeter=0;" parent="1" source="6Hfsp-HchkriN_jyHXR6-36" target="6Hfsp-HchkriN_jyHXR6-54" edge="1">
          <mxGeometry relative="1" as="geometry">
            <mxPoint x="590" y="30" as="sourcePoint" />
            <mxPoint x="750" y="30" as="targetPoint" />
          </mxGeometry>
        </mxCell>
        <mxCell id="6Hfsp-HchkriN_jyHXR6-54" value="TituloVideo" style="ellipse;whiteSpace=wrap;html=1;align=center;" parent="1" vertex="1">
          <mxGeometry x="450" y="-280" width="100" height="40" as="geometry" />
        </mxCell>
        <mxCell id="6Hfsp-HchkriN_jyHXR6-58" value="" style="endArrow=none;html=1;rounded=0;entryX=0;entryY=0.5;entryDx=0;entryDy=0;" parent="1" source="x-IFsA0KZFPQdiXZyoPM-26" target="6Hfsp-HchkriN_jyHXR6-36" edge="1">
          <mxGeometry relative="1" as="geometry">
            <mxPoint x="440" y="-10" as="sourcePoint" />
            <mxPoint x="600" y="-10" as="targetPoint" />
          </mxGeometry>
        </mxCell>
        <mxCell id="6Hfsp-HchkriN_jyHXR6-59" value="" style="endArrow=none;html=1;rounded=0;entryX=1;entryY=0.5;entryDx=0;entryDy=0;exitX=0;exitY=0.5;exitDx=0;exitDy=0;" parent="1" source="x-IFsA0KZFPQdiXZyoPM-26" target="6Hfsp-HchkriN_jyHXR6-16" edge="1">
          <mxGeometry relative="1" as="geometry">
            <mxPoint x="480" y="190" as="sourcePoint" />
            <mxPoint x="640" y="190" as="targetPoint" />
          </mxGeometry>
        </mxCell>
        <mxCell id="6Hfsp-HchkriN_jyHXR6-61" value="" style="endArrow=none;html=1;rounded=0;exitX=0.5;exitY=0;exitDx=0;exitDy=0;entryX=0.883;entryY=1.017;entryDx=0;entryDy=0;entryPerimeter=0;" parent="1" source="pTBvgsi7Kd9pau4Qi3qM-6" target="6Hfsp-HchkriN_jyHXR6-36" edge="1">
          <mxGeometry relative="1" as="geometry">
            <mxPoint x="700" y="160" as="sourcePoint" />
            <mxPoint x="560" y="50" as="targetPoint" />
          </mxGeometry>
        </mxCell>
        <mxCell id="6Hfsp-HchkriN_jyHXR6-63" value="" style="endArrow=none;html=1;rounded=0;exitX=0.75;exitY=1;exitDx=0;exitDy=0;entryX=0;entryY=0.5;entryDx=0;entryDy=0;" parent="1" source="6Hfsp-HchkriN_jyHXR6-16" target="pTBvgsi7Kd9pau4Qi3qM-33" edge="1">
          <mxGeometry relative="1" as="geometry">
            <mxPoint x="400" y="320" as="sourcePoint" />
            <mxPoint x="560" y="320" as="targetPoint" />
            <Array as="points" />
          </mxGeometry>
        </mxCell>
        <mxCell id="6Hfsp-HchkriN_jyHXR6-64" value="" style="endArrow=none;html=1;rounded=0;exitX=1;exitY=0.5;exitDx=0;exitDy=0;entryX=1;entryY=0;entryDx=0;entryDy=0;" parent="1" source="pTBvgsi7Kd9pau4Qi3qM-51" target="6Hfsp-HchkriN_jyHXR6-16" edge="1">
          <mxGeometry relative="1" as="geometry">
            <mxPoint x="190" y="240" as="sourcePoint" />
            <mxPoint x="350" y="240" as="targetPoint" />
          </mxGeometry>
        </mxCell>
        <mxCell id="6Hfsp-HchkriN_jyHXR6-65" value="" style="endArrow=none;html=1;rounded=0;exitX=0;exitY=0;exitDx=0;exitDy=0;entryX=0;entryY=0.5;entryDx=0;entryDy=0;" parent="1" source="6Hfsp-HchkriN_jyHXR6-16" target="pTBvgsi7Kd9pau4Qi3qM-51" edge="1">
          <mxGeometry relative="1" as="geometry">
            <mxPoint x="190" y="240" as="sourcePoint" />
            <mxPoint x="350" y="240" as="targetPoint" />
          </mxGeometry>
        </mxCell>
        <mxCell id="6Hfsp-HchkriN_jyHXR6-66" value="(0,N)" style="text;html=1;strokeColor=none;fillColor=none;align=center;verticalAlign=middle;whiteSpace=wrap;rounded=0;" parent="1" vertex="1">
          <mxGeometry x="-20" y="65" width="60" height="30" as="geometry" />
        </mxCell>
        <mxCell id="6Hfsp-HchkriN_jyHXR6-67" value="(0,N)" style="text;html=1;strokeColor=none;fillColor=none;align=center;verticalAlign=middle;whiteSpace=wrap;rounded=0;" parent="1" vertex="1">
          <mxGeometry x="-80" y="65" width="60" height="30" as="geometry" />
        </mxCell>
        <mxCell id="6Hfsp-HchkriN_jyHXR6-79" value="Escribe" style="shape=rhombus;perimeter=rhombusPerimeter;whiteSpace=wrap;html=1;align=center;" parent="1" vertex="1">
          <mxGeometry x="190" y="150" width="120" height="60" as="geometry" />
        </mxCell>
        <mxCell id="6Hfsp-HchkriN_jyHXR6-80" value="" style="endArrow=none;html=1;rounded=0;exitX=1;exitY=0.5;exitDx=0;exitDy=0;entryX=0;entryY=0.5;entryDx=0;entryDy=0;" parent="1" source="6Hfsp-HchkriN_jyHXR6-79" target="6Hfsp-HchkriN_jyHXR6-1" edge="1">
          <mxGeometry relative="1" as="geometry">
            <mxPoint x="520" y="340" as="sourcePoint" />
            <mxPoint x="680" y="340" as="targetPoint" />
            <Array as="points">
              <mxPoint x="310" y="410" />
            </Array>
          </mxGeometry>
        </mxCell>
        <mxCell id="6Hfsp-HchkriN_jyHXR6-81" value="" style="endArrow=none;html=1;rounded=0;exitX=1;exitY=1;exitDx=0;exitDy=0;entryX=0;entryY=0.5;entryDx=0;entryDy=0;" parent="1" source="6Hfsp-HchkriN_jyHXR6-16" target="6Hfsp-HchkriN_jyHXR6-79" edge="1">
          <mxGeometry relative="1" as="geometry">
            <mxPoint x="520" y="340" as="sourcePoint" />
            <mxPoint x="680" y="340" as="targetPoint" />
            <Array as="points">
              <mxPoint x="30" y="180" />
            </Array>
          </mxGeometry>
        </mxCell>
        <mxCell id="6Hfsp-HchkriN_jyHXR6-82" value="(0,N)" style="text;html=1;strokeColor=none;fillColor=none;align=center;verticalAlign=middle;whiteSpace=wrap;rounded=0;" parent="1" vertex="1">
          <mxGeometry x="424" y="410" width="60" height="30" as="geometry" />
        </mxCell>
        <mxCell id="6Hfsp-HchkriN_jyHXR6-83" value="(1,1)" style="text;html=1;strokeColor=none;fillColor=none;align=center;verticalAlign=middle;whiteSpace=wrap;rounded=0;" parent="1" vertex="1">
          <mxGeometry x="120" y="180" width="60" height="30" as="geometry" />
        </mxCell>
        <mxCell id="6Hfsp-HchkriN_jyHXR6-87" value="Tecnologia" style="whiteSpace=wrap;html=1;align=center;" parent="1" vertex="1">
          <mxGeometry x="920" y="-90" width="100" height="40" as="geometry" />
        </mxCell>
        <mxCell id="6Hfsp-HchkriN_jyHXR6-88" value="Asociado" style="shape=rhombus;perimeter=rhombusPerimeter;whiteSpace=wrap;html=1;align=center;" parent="1" vertex="1">
          <mxGeometry x="685" y="-100" width="120" height="60" as="geometry" />
        </mxCell>
        <mxCell id="6Hfsp-HchkriN_jyHXR6-89" value="" style="endArrow=none;html=1;rounded=0;exitX=1;exitY=0.5;exitDx=0;exitDy=0;entryX=0;entryY=0.5;entryDx=0;entryDy=0;" parent="1" source="6Hfsp-HchkriN_jyHXR6-36" target="6Hfsp-HchkriN_jyHXR6-88" edge="1">
          <mxGeometry relative="1" as="geometry">
            <mxPoint x="720" y="-130" as="sourcePoint" />
            <mxPoint x="770" y="-190" as="targetPoint" />
          </mxGeometry>
        </mxCell>
        <mxCell id="6Hfsp-HchkriN_jyHXR6-90" value="" style="endArrow=none;html=1;rounded=0;exitX=1;exitY=0.5;exitDx=0;exitDy=0;entryX=0;entryY=0.5;entryDx=0;entryDy=0;" parent="1" source="6Hfsp-HchkriN_jyHXR6-88" target="6Hfsp-HchkriN_jyHXR6-87" edge="1">
          <mxGeometry relative="1" as="geometry">
            <mxPoint x="720" y="-130" as="sourcePoint" />
            <mxPoint x="880" y="-130" as="targetPoint" />
          </mxGeometry>
        </mxCell>
        <mxCell id="6Hfsp-HchkriN_jyHXR6-91" value="Tipo" style="ellipse;whiteSpace=wrap;html=1;align=center;" parent="1" vertex="1">
          <mxGeometry x="1060" y="-70" width="100" height="40" as="geometry" />
        </mxCell>
        <mxCell id="6Hfsp-HchkriN_jyHXR6-92" value="NombreTecnologia" style="ellipse;whiteSpace=wrap;html=1;align=center;" parent="1" vertex="1">
          <mxGeometry x="1060" y="-110" width="120" height="40" as="geometry" />
        </mxCell>
        <mxCell id="6Hfsp-HchkriN_jyHXR6-93" value="&lt;u&gt;IdTecnologia&lt;/u&gt;" style="ellipse;whiteSpace=wrap;html=1;align=center;" parent="1" vertex="1">
          <mxGeometry x="1060" y="-150" width="100" height="40" as="geometry" />
        </mxCell>
        <mxCell id="6Hfsp-HchkriN_jyHXR6-94" value="" style="endArrow=none;html=1;rounded=0;entryX=0;entryY=0.5;entryDx=0;entryDy=0;exitX=1;exitY=0.5;exitDx=0;exitDy=0;" parent="1" source="6Hfsp-HchkriN_jyHXR6-87" target="6Hfsp-HchkriN_jyHXR6-93" edge="1">
          <mxGeometry relative="1" as="geometry">
            <mxPoint x="720" y="-130" as="sourcePoint" />
            <mxPoint x="880" y="-130" as="targetPoint" />
          </mxGeometry>
        </mxCell>
        <mxCell id="6Hfsp-HchkriN_jyHXR6-95" value="" style="endArrow=none;html=1;rounded=0;entryX=0;entryY=0.5;entryDx=0;entryDy=0;exitX=1;exitY=0.5;exitDx=0;exitDy=0;" parent="1" source="6Hfsp-HchkriN_jyHXR6-87" target="6Hfsp-HchkriN_jyHXR6-92" edge="1">
          <mxGeometry relative="1" as="geometry">
            <mxPoint x="1050" y="-200" as="sourcePoint" />
            <mxPoint x="880" y="-130" as="targetPoint" />
          </mxGeometry>
        </mxCell>
        <mxCell id="6Hfsp-HchkriN_jyHXR6-96" value="" style="endArrow=none;html=1;rounded=0;entryX=0;entryY=0.5;entryDx=0;entryDy=0;exitX=1;exitY=0.5;exitDx=0;exitDy=0;" parent="1" source="6Hfsp-HchkriN_jyHXR6-87" target="6Hfsp-HchkriN_jyHXR6-91" edge="1">
          <mxGeometry relative="1" as="geometry">
            <mxPoint x="720" y="-130" as="sourcePoint" />
            <mxPoint x="880" y="-130" as="targetPoint" />
          </mxGeometry>
        </mxCell>
        <mxCell id="6Hfsp-HchkriN_jyHXR6-106" value="" style="endArrow=none;html=1;rounded=0;exitX=1;exitY=0.5;exitDx=0;exitDy=0;entryX=0;entryY=0.5;entryDx=0;entryDy=0;" parent="1" source="6Hfsp-HchkriN_jyHXR6-1" target="6Hfsp-HchkriN_jyHXR6-7" edge="1">
          <mxGeometry relative="1" as="geometry">
            <mxPoint x="580" y="340" as="sourcePoint" />
            <mxPoint x="1280" y="220" as="targetPoint" />
          </mxGeometry>
        </mxCell>
        <mxCell id="6Hfsp-HchkriN_jyHXR6-7" value="FechaDePublicacion" style="ellipse;whiteSpace=wrap;html=1;align=center;" parent="1" vertex="1">
          <mxGeometry x="625" y="390" width="120" height="40" as="geometry" />
        </mxCell>
        <mxCell id="6Hfsp-HchkriN_jyHXR6-107" value="" style="endArrow=none;html=1;rounded=0;exitX=0;exitY=0;exitDx=0;exitDy=0;entryX=0.5;entryY=1;entryDx=0;entryDy=0;" parent="1" source="6Hfsp-HchkriN_jyHXR6-1" target="hkhu-ZboijIpGrUMMUxa-16" edge="1">
          <mxGeometry relative="1" as="geometry">
            <mxPoint x="590" y="400" as="sourcePoint" />
            <mxPoint x="395" y="350" as="targetPoint" />
          </mxGeometry>
        </mxCell>
        <mxCell id="6Hfsp-HchkriN_jyHXR6-108" value="" style="endArrow=none;html=1;rounded=0;exitX=0.5;exitY=0;exitDx=0;exitDy=0;entryX=0.5;entryY=1;entryDx=0;entryDy=0;" parent="1" source="hkhu-ZboijIpGrUMMUxa-16" target="hkhu-ZboijIpGrUMMUxa-17" edge="1">
          <mxGeometry relative="1" as="geometry">
            <mxPoint x="370" y="240" as="sourcePoint" />
            <mxPoint x="360" y="190" as="targetPoint" />
          </mxGeometry>
        </mxCell>
        <mxCell id="6Hfsp-HchkriN_jyHXR6-119" value="(0,N)" style="text;html=1;strokeColor=none;fillColor=none;align=center;verticalAlign=middle;whiteSpace=wrap;rounded=0;" parent="1" vertex="1">
          <mxGeometry x="540" y="-100" width="60" height="30" as="geometry" />
        </mxCell>
        <mxCell id="6Hfsp-HchkriN_jyHXR6-120" value="(0,1)" style="text;html=1;strokeColor=none;fillColor=none;align=center;verticalAlign=middle;whiteSpace=wrap;rounded=0;" parent="1" vertex="1">
          <mxGeometry x="860" y="-100" width="60" height="30" as="geometry" />
        </mxCell>
        <mxCell id="6Hfsp-HchkriN_jyHXR6-125" value="(0,N)" style="text;html=1;strokeColor=none;fillColor=none;align=center;verticalAlign=middle;whiteSpace=wrap;rounded=0;" parent="1" vertex="1">
          <mxGeometry x="395" y="210" width="60" height="30" as="geometry" />
        </mxCell>
        <mxCell id="6Hfsp-HchkriN_jyHXR6-126" value="(1,N)" style="text;html=1;strokeColor=none;fillColor=none;align=center;verticalAlign=middle;whiteSpace=wrap;rounded=0;" parent="1" vertex="1">
          <mxGeometry x="445" y="355" width="60" height="30" as="geometry" />
        </mxCell>
        <mxCell id="6Hfsp-HchkriN_jyHXR6-129" value="Comunidad" style="whiteSpace=wrap;html=1;align=center;" parent="1" vertex="1">
          <mxGeometry x="-110" y="610" width="100" height="40" as="geometry" />
        </mxCell>
        <mxCell id="6Hfsp-HchkriN_jyHXR6-130" value="Pertenece" style="shape=rhombus;perimeter=rhombusPerimeter;whiteSpace=wrap;html=1;align=center;" parent="1" vertex="1">
          <mxGeometry x="-120" y="430" width="120" height="60" as="geometry" />
        </mxCell>
        <mxCell id="6Hfsp-HchkriN_jyHXR6-131" value="" style="endArrow=none;html=1;rounded=0;exitX=0.5;exitY=0;exitDx=0;exitDy=0;entryX=0.098;entryY=0.965;entryDx=0;entryDy=0;entryPerimeter=0;" parent="1" source="6Hfsp-HchkriN_jyHXR6-130" target="6Hfsp-HchkriN_jyHXR6-16" edge="1">
          <mxGeometry relative="1" as="geometry">
            <mxPoint x="-240" y="310" as="sourcePoint" />
            <mxPoint x="-60" y="320" as="targetPoint" />
            <Array as="points" />
          </mxGeometry>
        </mxCell>
        <mxCell id="6Hfsp-HchkriN_jyHXR6-132" value="" style="endArrow=none;html=1;rounded=0;entryX=0.5;entryY=1;entryDx=0;entryDy=0;exitX=0.5;exitY=0;exitDx=0;exitDy=0;" parent="1" source="6Hfsp-HchkriN_jyHXR6-129" target="6Hfsp-HchkriN_jyHXR6-130" edge="1">
          <mxGeometry relative="1" as="geometry">
            <mxPoint x="-320" y="600" as="sourcePoint" />
            <mxPoint x="-160" y="600" as="targetPoint" />
          </mxGeometry>
        </mxCell>
        <mxCell id="6Hfsp-HchkriN_jyHXR6-134" value="NombreComunidad" style="ellipse;whiteSpace=wrap;html=1;align=center;fontStyle=4;" parent="1" vertex="1">
          <mxGeometry x="100" y="610" width="120" height="40" as="geometry" />
        </mxCell>
        <mxCell id="6Hfsp-HchkriN_jyHXR6-135" value="Descripcion" style="ellipse;whiteSpace=wrap;html=1;align=center;" parent="1" vertex="1">
          <mxGeometry x="100" y="650" width="100" height="40" as="geometry" />
        </mxCell>
        <mxCell id="6Hfsp-HchkriN_jyHXR6-138" value="" style="endArrow=none;html=1;rounded=0;exitX=1;exitY=0.5;exitDx=0;exitDy=0;entryX=0;entryY=0.5;entryDx=0;entryDy=0;" parent="1" source="6Hfsp-HchkriN_jyHXR6-129" target="6Hfsp-HchkriN_jyHXR6-134" edge="1">
          <mxGeometry relative="1" as="geometry">
            <mxPoint x="50" y="510" as="sourcePoint" />
            <mxPoint x="50" y="630" as="targetPoint" />
          </mxGeometry>
        </mxCell>
        <mxCell id="6Hfsp-HchkriN_jyHXR6-140" value="" style="endArrow=none;html=1;rounded=0;exitX=1;exitY=0.5;exitDx=0;exitDy=0;entryX=0;entryY=0.5;entryDx=0;entryDy=0;" parent="1" source="6Hfsp-HchkriN_jyHXR6-129" target="6Hfsp-HchkriN_jyHXR6-135" edge="1">
          <mxGeometry relative="1" as="geometry">
            <mxPoint x="50" y="510" as="sourcePoint" />
            <mxPoint x="60" y="670" as="targetPoint" />
          </mxGeometry>
        </mxCell>
        <mxCell id="6Hfsp-HchkriN_jyHXR6-141" value="(0,N)" style="text;html=1;strokeColor=none;fillColor=none;align=center;verticalAlign=middle;whiteSpace=wrap;rounded=0;" parent="1" vertex="1">
          <mxGeometry x="-120" y="555" width="60" height="30" as="geometry" />
        </mxCell>
        <mxCell id="6Hfsp-HchkriN_jyHXR6-142" value="(1,N)" style="text;html=1;strokeColor=none;fillColor=none;align=center;verticalAlign=middle;whiteSpace=wrap;rounded=0;" parent="1" vertex="1">
          <mxGeometry x="-60" y="210" width="60" height="30" as="geometry" />
        </mxCell>
        <mxCell id="6Hfsp-HchkriN_jyHXR6-156" value="" style="endArrow=none;html=1;rounded=0;entryX=0.5;entryY=1;entryDx=0;entryDy=0;" parent="1" source="gorFqiDRSXCNZbVEXhV4-19" target="gorFqiDRSXCNZbVEXhV4-22" edge="1">
          <mxGeometry relative="1" as="geometry">
            <mxPoint x="-330" y="500" as="sourcePoint" />
            <mxPoint x="-330" y="450" as="targetPoint" />
          </mxGeometry>
        </mxCell>
        <mxCell id="6Hfsp-HchkriN_jyHXR6-159" value="" style="endArrow=none;html=1;rounded=0;exitX=1;exitY=0.5;exitDx=0;exitDy=0;entryX=0;entryY=0.75;entryDx=0;entryDy=0;" parent="1" source="gorFqiDRSXCNZbVEXhV4-22" target="6Hfsp-HchkriN_jyHXR6-16" edge="1">
          <mxGeometry relative="1" as="geometry">
            <mxPoint x="-270" y="420" as="sourcePoint" />
            <mxPoint x="-150" y="305" as="targetPoint" />
          </mxGeometry>
        </mxCell>
        <mxCell id="6Hfsp-HchkriN_jyHXR6-161" value="FechaCreacion" style="ellipse;whiteSpace=wrap;html=1;align=center;" parent="1" vertex="1">
          <mxGeometry x="-513" y="415" width="100" height="40" as="geometry" />
        </mxCell>
        <mxCell id="6Hfsp-HchkriN_jyHXR6-169" value="" style="endArrow=none;html=1;rounded=0;exitX=1;exitY=0.5;exitDx=0;exitDy=0;" parent="1" source="6Hfsp-HchkriN_jyHXR6-161" edge="1">
          <mxGeometry relative="1" as="geometry">
            <mxPoint x="-240" y="500" as="sourcePoint" />
            <mxPoint x="-380" y="470" as="targetPoint" />
          </mxGeometry>
        </mxCell>
        <mxCell id="6Hfsp-HchkriN_jyHXR6-180" value="Contenido" style="ellipse;whiteSpace=wrap;html=1;align=center;" parent="1" vertex="1">
          <mxGeometry x="-513" y="460" width="100" height="40" as="geometry" />
        </mxCell>
        <mxCell id="6Hfsp-HchkriN_jyHXR6-181" value="" style="endArrow=none;html=1;rounded=0;exitX=1;exitY=0.5;exitDx=0;exitDy=0;entryX=0;entryY=0.5;entryDx=0;entryDy=0;" parent="1" source="6Hfsp-HchkriN_jyHXR6-180" edge="1">
          <mxGeometry relative="1" as="geometry">
            <mxPoint x="-150" y="460" as="sourcePoint" />
            <mxPoint x="-380" y="470" as="targetPoint" />
          </mxGeometry>
        </mxCell>
        <mxCell id="6Hfsp-HchkriN_jyHXR6-182" value="" style="triangle;whiteSpace=wrap;html=1;rotation=-90;" parent="1" vertex="1">
          <mxGeometry x="-90" y="940" width="60" height="80" as="geometry" />
        </mxCell>
        <mxCell id="6Hfsp-HchkriN_jyHXR6-183" value="" style="endArrow=none;html=1;rounded=0;entryX=0.5;entryY=1;entryDx=0;entryDy=0;exitX=1;exitY=0.5;exitDx=0;exitDy=0;" parent="1" source="6Hfsp-HchkriN_jyHXR6-182" target="6Hfsp-HchkriN_jyHXR6-129" edge="1">
          <mxGeometry relative="1" as="geometry">
            <mxPoint x="-50" y="790" as="sourcePoint" />
            <mxPoint x="110" y="790" as="targetPoint" />
          </mxGeometry>
        </mxCell>
        <mxCell id="6Hfsp-HchkriN_jyHXR6-185" value="" style="endArrow=none;html=1;rounded=0;exitX=0;exitY=0.25;exitDx=0;exitDy=0;entryX=1;entryY=0.5;entryDx=0;entryDy=0;" parent="1" source="6Hfsp-HchkriN_jyHXR6-182" target="6Hfsp-HchkriN_jyHXR6-188" edge="1">
          <mxGeometry relative="1" as="geometry">
            <mxPoint x="-81" y="1020" as="sourcePoint" />
            <mxPoint x="-70" y="1060" as="targetPoint" />
            <Array as="points">
              <mxPoint x="-80" y="1060" />
            </Array>
          </mxGeometry>
        </mxCell>
        <mxCell id="6Hfsp-HchkriN_jyHXR6-186" value="" style="endArrow=none;html=1;rounded=0;exitX=0;exitY=0.75;exitDx=0;exitDy=0;entryX=0;entryY=0.5;entryDx=0;entryDy=0;" parent="1" source="6Hfsp-HchkriN_jyHXR6-182" target="6Hfsp-HchkriN_jyHXR6-187" edge="1">
          <mxGeometry relative="1" as="geometry">
            <mxPoint x="-10" y="1070" as="sourcePoint" />
            <mxPoint x="-30" y="1060" as="targetPoint" />
            <Array as="points">
              <mxPoint x="-40" y="1060" />
            </Array>
          </mxGeometry>
        </mxCell>
        <mxCell id="6Hfsp-HchkriN_jyHXR6-187" value="Juego" style="whiteSpace=wrap;html=1;align=center;" parent="1" vertex="1">
          <mxGeometry y="1040" width="100" height="40" as="geometry" />
        </mxCell>
        <mxCell id="6Hfsp-HchkriN_jyHXR6-188" value="Ingenieria" style="whiteSpace=wrap;html=1;align=center;" parent="1" vertex="1">
          <mxGeometry x="-210" y="1040" width="100" height="40" as="geometry" />
        </mxCell>
        <mxCell id="6Hfsp-HchkriN_jyHXR6-193" value="Tiene" style="shape=rhombus;perimeter=rhombusPerimeter;whiteSpace=wrap;html=1;align=center;" parent="1" vertex="1">
          <mxGeometry x="-220" y="1130" width="120" height="60" as="geometry" />
        </mxCell>
        <mxCell id="6Hfsp-HchkriN_jyHXR6-194" value="" style="endArrow=none;html=1;rounded=0;exitX=0.5;exitY=0;exitDx=0;exitDy=0;entryX=0.5;entryY=1;entryDx=0;entryDy=0;" parent="1" source="6Hfsp-HchkriN_jyHXR6-193" target="6Hfsp-HchkriN_jyHXR6-188" edge="1">
          <mxGeometry relative="1" as="geometry">
            <mxPoint x="-90" y="1050" as="sourcePoint" />
            <mxPoint x="70" y="1050" as="targetPoint" />
          </mxGeometry>
        </mxCell>
        <mxCell id="6Hfsp-HchkriN_jyHXR6-195" value="Subtipo" style="whiteSpace=wrap;html=1;align=center;" parent="1" vertex="1">
          <mxGeometry x="-210" y="1250" width="100" height="40" as="geometry" />
        </mxCell>
        <mxCell id="6Hfsp-HchkriN_jyHXR6-196" value="" style="endArrow=none;html=1;rounded=0;exitX=0.5;exitY=1;exitDx=0;exitDy=0;entryX=0.5;entryY=0;entryDx=0;entryDy=0;" parent="1" source="6Hfsp-HchkriN_jyHXR6-193" target="6Hfsp-HchkriN_jyHXR6-195" edge="1">
          <mxGeometry relative="1" as="geometry">
            <mxPoint x="-160" y="1240" as="sourcePoint" />
            <mxPoint x="60" y="1200" as="targetPoint" />
          </mxGeometry>
        </mxCell>
        <mxCell id="6Hfsp-HchkriN_jyHXR6-197" value="(1,1)" style="text;html=1;strokeColor=none;fillColor=none;align=center;verticalAlign=middle;whiteSpace=wrap;rounded=0;" parent="1" vertex="1">
          <mxGeometry x="-140" y="200" width="60" height="30" as="geometry" />
        </mxCell>
        <mxCell id="6Hfsp-HchkriN_jyHXR6-198" value="(0,N)" style="text;html=1;strokeColor=none;fillColor=none;align=center;verticalAlign=middle;whiteSpace=wrap;rounded=0;" parent="1" vertex="1">
          <mxGeometry x="-330" y="410" width="60" height="30" as="geometry" />
        </mxCell>
        <mxCell id="6Hfsp-HchkriN_jyHXR6-206" value="" style="endArrow=none;html=1;rounded=0;exitX=1;exitY=0.5;exitDx=0;exitDy=0;entryX=0.5;entryY=1;entryDx=0;entryDy=0;" parent="1" source="pTBvgsi7Kd9pau4Qi3qM-33" target="6Hfsp-HchkriN_jyHXR6-1" edge="1">
          <mxGeometry relative="1" as="geometry">
            <mxPoint x="370" y="530" as="sourcePoint" />
            <mxPoint x="480" y="580" as="targetPoint" />
            <Array as="points">
              <mxPoint x="530" y="455" />
            </Array>
          </mxGeometry>
        </mxCell>
        <mxCell id="3xU1QoV2EhT_rD0yMtTH-2" value="" style="endArrow=none;html=1;rounded=0;exitX=0.5;exitY=0;exitDx=0;exitDy=0;" parent="1" source="pTBvgsi7Kd9pau4Qi3qM-33" target="3xU1QoV2EhT_rD0yMtTH-3" edge="1">
          <mxGeometry relative="1" as="geometry">
            <mxPoint x="180" y="375" as="sourcePoint" />
            <mxPoint x="180" y="395" as="targetPoint" />
          </mxGeometry>
        </mxCell>
        <mxCell id="3xU1QoV2EhT_rD0yMtTH-3" value="Fecha" style="ellipse;whiteSpace=wrap;html=1;align=center;" parent="1" vertex="1">
          <mxGeometry x="130" y="355" width="100" height="40" as="geometry" />
        </mxCell>
        <mxCell id="3xU1QoV2EhT_rD0yMtTH-4" style="edgeStyle=orthogonalEdgeStyle;rounded=0;orthogonalLoop=1;jettySize=auto;html=1;exitX=0.5;exitY=1;exitDx=0;exitDy=0;" parent="1" source="6Hfsp-HchkriN_jyHXR6-42" target="6Hfsp-HchkriN_jyHXR6-42" edge="1">
          <mxGeometry relative="1" as="geometry" />
        </mxCell>
        <mxCell id="WuBQlA2kVESqy7rPBGrn-2" value="" style="endArrow=none;html=1;rounded=0;entryX=0.5;entryY=0;entryDx=0;entryDy=0;exitX=0.5;exitY=1;exitDx=0;exitDy=0;" parent="1" source="hkhu-ZboijIpGrUMMUxa-18" target="hkhu-ZboijIpGrUMMUxa-17" edge="1">
          <mxGeometry relative="1" as="geometry">
            <mxPoint x="570" y="140" as="sourcePoint" />
            <mxPoint x="470" y="110" as="targetPoint" />
          </mxGeometry>
        </mxCell>
        <mxCell id="gorFqiDRSXCNZbVEXhV4-7" value="" style="endArrow=none;html=1;rounded=0;entryX=0.5;entryY=0;entryDx=0;entryDy=0;exitX=0.103;exitY=1.023;exitDx=0;exitDy=0;exitPerimeter=0;" parent="1" source="gorFqiDRSXCNZbVEXhV4-19" target="gorFqiDRSXCNZbVEXhV4-34" edge="1">
          <mxGeometry relative="1" as="geometry">
            <mxPoint x="-380" y="580" as="sourcePoint" />
            <mxPoint x="-330" y="585" as="targetPoint" />
          </mxGeometry>
        </mxCell>
        <mxCell id="gorFqiDRSXCNZbVEXhV4-10" value="" style="endArrow=none;html=1;rounded=0;exitX=0.5;exitY=0;exitDx=0;exitDy=0;entryX=0.25;entryY=1;entryDx=0;entryDy=0;" parent="1" source="pF_4wu0YnR7IV00H9bAI-3" target="6Hfsp-HchkriN_jyHXR6-129" edge="1">
          <mxGeometry relative="1" as="geometry">
            <mxPoint x="-140" y="710" as="sourcePoint" />
            <mxPoint x="-70" y="680" as="targetPoint" />
          </mxGeometry>
        </mxCell>
        <mxCell id="gorFqiDRSXCNZbVEXhV4-19" value="Post" style="whiteSpace=wrap;html=1;align=center;" parent="1" vertex="1">
          <mxGeometry x="-380" y="450" width="100" height="40" as="geometry" />
        </mxCell>
        <mxCell id="gorFqiDRSXCNZbVEXhV4-20" value="NombrePost" style="ellipse;whiteSpace=wrap;html=1;align=center;fontStyle=4;" parent="1" vertex="1">
          <mxGeometry x="-513" y="370" width="100" height="40" as="geometry" />
        </mxCell>
        <mxCell id="gorFqiDRSXCNZbVEXhV4-21" value="" style="endArrow=none;html=1;rounded=0;entryX=0;entryY=0.5;entryDx=0;entryDy=0;" parent="1" source="gorFqiDRSXCNZbVEXhV4-20" target="gorFqiDRSXCNZbVEXhV4-19" edge="1">
          <mxGeometry relative="1" as="geometry">
            <mxPoint x="-413" y="390" as="sourcePoint" />
            <mxPoint x="-100" y="500" as="targetPoint" />
          </mxGeometry>
        </mxCell>
        <mxCell id="gorFqiDRSXCNZbVEXhV4-22" value="Escribe" style="shape=rhombus;perimeter=rhombusPerimeter;whiteSpace=wrap;html=1;align=center;" parent="1" vertex="1">
          <mxGeometry x="-390" y="275" width="120" height="60" as="geometry" />
        </mxCell>
        <mxCell id="gorFqiDRSXCNZbVEXhV4-27" value="" style="endArrow=none;html=1;rounded=0;exitX=0.5;exitY=0;exitDx=0;exitDy=0;" parent="1" target="pF_4wu0YnR7IV00H9bAI-3" edge="1">
          <mxGeometry relative="1" as="geometry">
            <mxPoint x="-140" y="810" as="sourcePoint" />
            <mxPoint x="-140" y="770" as="targetPoint" />
          </mxGeometry>
        </mxCell>
        <mxCell id="gorFqiDRSXCNZbVEXhV4-34" value="Trata" style="shape=rhombus;perimeter=rhombusPerimeter;whiteSpace=wrap;html=1;align=center;" parent="1" vertex="1">
          <mxGeometry x="-430" y="680" width="120" height="60" as="geometry" />
        </mxCell>
        <mxCell id="gorFqiDRSXCNZbVEXhV4-35" value="" style="endArrow=none;html=1;rounded=0;exitX=1;exitY=0.5;exitDx=0;exitDy=0;entryX=-0.007;entryY=0.34;entryDx=0;entryDy=0;entryPerimeter=0;" parent="1" source="gorFqiDRSXCNZbVEXhV4-34" target="gorFqiDRSXCNZbVEXhV4-33" edge="1">
          <mxGeometry relative="1" as="geometry">
            <mxPoint x="-160" y="730" as="sourcePoint" />
            <mxPoint y="730" as="targetPoint" />
          </mxGeometry>
        </mxCell>
        <mxCell id="gorFqiDRSXCNZbVEXhV4-36" value="(1,1)" style="text;html=1;strokeColor=none;fillColor=none;align=center;verticalAlign=middle;whiteSpace=wrap;rounded=0;" parent="1" vertex="1">
          <mxGeometry x="-310" y="680" width="60" height="30" as="geometry" />
        </mxCell>
        <mxCell id="gorFqiDRSXCNZbVEXhV4-37" value="(0,N)" style="text;html=1;strokeColor=none;fillColor=none;align=center;verticalAlign=middle;whiteSpace=wrap;rounded=0;" parent="1" vertex="1">
          <mxGeometry x="-370" y="515" width="60" height="30" as="geometry" />
        </mxCell>
        <mxCell id="gorFqiDRSXCNZbVEXhV4-40" value="(1,N)" style="text;html=1;strokeColor=none;fillColor=none;align=center;verticalAlign=middle;whiteSpace=wrap;rounded=0;" parent="1" vertex="1">
          <mxGeometry x="-150" y="780" width="60" height="30" as="geometry" />
        </mxCell>
        <mxCell id="gorFqiDRSXCNZbVEXhV4-42" value="(1,N)" style="text;html=1;strokeColor=none;fillColor=none;align=center;verticalAlign=middle;whiteSpace=wrap;rounded=0;" parent="1" vertex="1">
          <mxGeometry x="-120" y="670" width="60" height="30" as="geometry" />
        </mxCell>
        <mxCell id="hkhu-ZboijIpGrUMMUxa-16" value="Tiene" style="shape=rhombus;perimeter=rhombusPerimeter;whiteSpace=wrap;html=1;align=center;" parent="1" vertex="1">
          <mxGeometry x="335" y="240" width="120" height="60" as="geometry" />
        </mxCell>
        <mxCell id="hkhu-ZboijIpGrUMMUxa-17" value="Hashtag" style="whiteSpace=wrap;html=1;align=center;" parent="1" vertex="1">
          <mxGeometry x="345" y="120" width="100" height="40" as="geometry" />
        </mxCell>
        <mxCell id="hkhu-ZboijIpGrUMMUxa-18" value="NombreHashtag" style="ellipse;whiteSpace=wrap;html=1;align=center;fontStyle=4;" parent="1" vertex="1">
          <mxGeometry x="345" y="55" width="100" height="40" as="geometry" />
        </mxCell>
        <mxCell id="hkhu-ZboijIpGrUMMUxa-22" value="Recomienda" style="shape=rhombus;perimeter=rhombusPerimeter;whiteSpace=wrap;html=1;align=center;" parent="1" vertex="1">
          <mxGeometry x="190" y="-5" width="120" height="60" as="geometry" />
        </mxCell>
        <mxCell id="hkhu-ZboijIpGrUMMUxa-23" value="" style="endArrow=none;html=1;rounded=0;entryX=0;entryY=0.5;entryDx=0;entryDy=0;" parent="1" target="hkhu-ZboijIpGrUMMUxa-22" edge="1">
          <mxGeometry relative="1" as="geometry">
            <mxPoint x="30" y="140" as="sourcePoint" />
            <mxPoint x="410" y="270" as="targetPoint" />
            <Array as="points" />
          </mxGeometry>
        </mxCell>
        <mxCell id="hkhu-ZboijIpGrUMMUxa-24" value="" style="endArrow=none;html=1;rounded=0;exitX=1;exitY=0.5;exitDx=0;exitDy=0;entryX=0.094;entryY=0.999;entryDx=0;entryDy=0;entryPerimeter=0;" parent="1" source="hkhu-ZboijIpGrUMMUxa-22" target="3xU1QoV2EhT_rD0yMtTH-9" edge="1">
          <mxGeometry relative="1" as="geometry">
            <mxPoint x="250" y="270" as="sourcePoint" />
            <mxPoint x="480" y="20" as="targetPoint" />
            <Array as="points">
              <mxPoint x="470" y="30" />
            </Array>
          </mxGeometry>
        </mxCell>
        <mxCell id="hkhu-ZboijIpGrUMMUxa-25" value="(0,N)" style="text;html=1;strokeColor=none;fillColor=none;align=center;verticalAlign=middle;whiteSpace=wrap;rounded=0;" parent="1" vertex="1">
          <mxGeometry x="410" y="-20" width="60" height="30" as="geometry" />
        </mxCell>
        <mxCell id="hkhu-ZboijIpGrUMMUxa-26" value="(0,N)" style="text;html=1;strokeColor=none;fillColor=none;align=center;verticalAlign=middle;whiteSpace=wrap;rounded=0;" parent="1" vertex="1">
          <mxGeometry x="150" y="55" width="60" height="30" as="geometry" />
        </mxCell>
        <mxCell id="-38kBFy4uLWe3i57pI8A-13" value="Empresa" style="ellipse;shape=doubleEllipse;margin=3;whiteSpace=wrap;html=1;align=center;" parent="1" vertex="1">
          <mxGeometry x="170" y="1040" width="100" height="40" as="geometry" />
        </mxCell>
        <mxCell id="-38kBFy4uLWe3i57pI8A-14" value="Videojuego" style="ellipse;shape=doubleEllipse;margin=3;whiteSpace=wrap;html=1;align=center;" parent="1" vertex="1">
          <mxGeometry x="170" y="1109" width="100" height="40" as="geometry" />
        </mxCell>
        <mxCell id="-38kBFy4uLWe3i57pI8A-15" value="" style="endArrow=none;html=1;rounded=0;exitX=1;exitY=0.5;exitDx=0;exitDy=0;entryX=0;entryY=0.5;entryDx=0;entryDy=0;" parent="1" source="6Hfsp-HchkriN_jyHXR6-187" target="-38kBFy4uLWe3i57pI8A-14" edge="1">
          <mxGeometry relative="1" as="geometry">
            <mxPoint x="210" y="1030" as="sourcePoint" />
            <mxPoint x="370" y="1030" as="targetPoint" />
          </mxGeometry>
        </mxCell>
        <mxCell id="-38kBFy4uLWe3i57pI8A-16" value="" style="endArrow=none;html=1;rounded=0;exitX=1;exitY=0.5;exitDx=0;exitDy=0;entryX=0;entryY=0.5;entryDx=0;entryDy=0;" parent="1" source="6Hfsp-HchkriN_jyHXR6-187" target="-38kBFy4uLWe3i57pI8A-13" edge="1">
          <mxGeometry relative="1" as="geometry">
            <mxPoint x="210" y="1030" as="sourcePoint" />
            <mxPoint x="370" y="1030" as="targetPoint" />
          </mxGeometry>
        </mxCell>
        <mxCell id="45pVCNMKRqjyRAgDhygM-7" value="IdSubtipo" style="ellipse;whiteSpace=wrap;html=1;align=center;fontStyle=4;" parent="1" vertex="1">
          <mxGeometry x="-380" y="1250" width="100" height="40" as="geometry" />
        </mxCell>
        <mxCell id="45pVCNMKRqjyRAgDhygM-8" value="" style="endArrow=none;html=1;rounded=0;" parent="1" source="45pVCNMKRqjyRAgDhygM-7" target="6Hfsp-HchkriN_jyHXR6-195" edge="1">
          <mxGeometry relative="1" as="geometry">
            <mxPoint x="-170" y="1170" as="sourcePoint" />
            <mxPoint x="-10" y="1170" as="targetPoint" />
          </mxGeometry>
        </mxCell>
        <mxCell id="45pVCNMKRqjyRAgDhygM-9" value="(1,1)" style="text;html=1;strokeColor=none;fillColor=none;align=center;verticalAlign=middle;whiteSpace=wrap;rounded=0;" parent="1" vertex="1">
          <mxGeometry x="-160" y="1220" width="60" height="30" as="geometry" />
        </mxCell>
        <mxCell id="45pVCNMKRqjyRAgDhygM-10" value="(1,1)" style="text;html=1;strokeColor=none;fillColor=none;align=center;verticalAlign=middle;whiteSpace=wrap;rounded=0;" parent="1" vertex="1">
          <mxGeometry x="-160" y="1079" width="60" height="30" as="geometry" />
        </mxCell>
        <mxCell id="pF_4wu0YnR7IV00H9bAI-1" value="Tema" style="whiteSpace=wrap;html=1;align=center;" parent="1" vertex="1">
          <mxGeometry x="-190" y="810" width="100" height="40" as="geometry" />
        </mxCell>
        <mxCell id="pF_4wu0YnR7IV00H9bAI-3" value="Tiene" style="shape=rhombus;perimeter=rhombusPerimeter;whiteSpace=wrap;html=1;align=center;" parent="1" vertex="1">
          <mxGeometry x="-200" y="690" width="120" height="60" as="geometry" />
        </mxCell>
        <mxCell id="pF_4wu0YnR7IV00H9bAI-4" value="&lt;u&gt;TituloTema&lt;/u&gt;" style="ellipse;whiteSpace=wrap;html=1;align=center;" parent="1" vertex="1">
          <mxGeometry x="-190" y="880" width="100" height="40" as="geometry" />
        </mxCell>
        <mxCell id="pF_4wu0YnR7IV00H9bAI-5" value="" style="endArrow=none;html=1;rounded=0;" parent="1" source="pF_4wu0YnR7IV00H9bAI-4" target="pF_4wu0YnR7IV00H9bAI-1" edge="1">
          <mxGeometry relative="1" as="geometry">
            <mxPoint x="10" y="810" as="sourcePoint" />
            <mxPoint x="170" y="810" as="targetPoint" />
          </mxGeometry>
        </mxCell>
      </root>
    </mxGraphModel>
  </diagram>
</mxfile>
